<svg xmlns="http://www.w3.org/2000/svg" viewBox="0 0 20 20" fill="none" stroke="currentColor" stroke-width="1.5" stroke-linecap="round" stroke-linejoin="round">
  <path d="M5 3.5 H8 a1.5 1.5 0 0 1 1.5 1.5 V8 A1.5 1.5 0 0 1 8 9.5 H5 A1.5 1.5 0 0 1 3.5 8 V5 A1.5 1.5 0 0 1 5 3.5 Z M12 3.5 H15 a1.5 1.5 0 0 1 1.5 1.5 V8 a1.5 1.5 0 0 1 -1.5 1.5 H12 a1.5 1.5 0 0 1 -1.5 -1.5 V5 A1.5 1.5 0 0 1 12 3.5 Z M5 10.5 H8 a1.5 1.5 0 0 1 1.5 1.5 V15 A1.5 1.5 0 0 1 8 16.5 H5 A1.5 1.5 0 0 1 3.5 15 V12 A1.5 1.5 0 0 1 5 10.5 Z M10.5 13.5 a3 3 0 1 0 6 0 a3 3 0 1 0 -6 0"/>
</svg>
